<?xml version="1.0" encoding="utf8" standalone="no"?>
<svg viewBox="0 0 112 163" xml:space="preserve" xmlns="http://www.w3.org/2000/svg"><defs></defs>
<path d="m57.30924,28.61376c12.10507,0 19.90141,12.69853 20.064,28.44569h-40.12801c.16259-15.74715 7.95894-28.44569 20.06401-28.44569zm0-15.72277c-18.86082,0-34.14458,19.95832-34.14458,44.57493l.00813.61785c-6.4143,2.34947-10.98317,8.48737-10.98317,15.69025v39.20935c0,17.45439 20.20221,31.60813 45.11962,31.60813s45.11962-14.15374 45.11962-31.60813v-39.20935c0-7.20288-4.56887-13.34078-10.98318-15.69025l.00813-.61785c0-24.61662-15.28376-44.57493-34.14457-44.57493zm-12.80422,81.24784c0-7.04842 5.73141-12.76357 12.80422-12.76357s12.80422,5.71515 12.80422,12.76357c0,4.51196-2.34947,8.47923-5.894,10.74741v11.74736h-13.82043v-11.74736c-3.54453-2.26818-5.894-6.23545-5.894-10.74741z" fill="#242424" fill-rule="evenodd"></path>
</svg>
